# xmcd
#
# Track frame offsets:
#	151
#	33896
#	53237
#	67389
#	84612
#	109659
#	146327
#	173470
#	190614
#	204648
#	238434
#
# Disc length: 3471 seconds
#
# Revision: 1
# Processed by: cddbd v1.5.2PL0 Copyright (c) Steve Scherf et al.
# Submitted via: audiograbber 1.83.01
#
DISCID=990d8d0b
DTITLE=Lázaro Ros El Akpwón Mayor - Canto a los ORISHAS Vol.II
DYEAR=2008
DGENRE=Orishas
TTITLE0=Elewá
TTITLE1=Oshosi
TTITLE2=Inle
TTITLE3=Orichaoko
TTITLE4=Babalú
TTITLE5=Ossain
TTITLE6=Dadda
TTITLE7=Korikoto
TTITLE8=Ibelli
TTITLE9=Argayú
TTITLE10=Shangó
EXTD=
EXTT0=
EXTT1=
EXTT2=
EXTT3=
EXTT4=
EXTT5=
EXTT6=
EXTT7=
EXTT8=
EXTT9=
EXTT10=
PLAYORDER=
